# xmcd
#
# Track frame offsets: 
#        150
#        10726
#        22849
#        33299
#        45515
#        59786
#        78916
#        89202
#        99701
#        110163
#        124939
#        139125
#        151513
#        164065
#        179339
#        189771
#        205862
#        218748
#
# Disc length: 3224 seconds
#
# Revision: 0
# Processed by: cddbd v1.5.2PL0 Copyright (c) Steve Scherf et al.
# Submitted via: ExactAudioCopy v0.99pb4
#
DISCID=f30c9612
DTITLE=B.B. King - More B.B. King
DYEAR=1961
DGENRE=Blues
TTITLE0=Bad Case of Love
TTITLE1=Get Out of Here
TTITLE2=Bad Luck Soul
TTITLE3=Shut Your Mouth
TTITLE4=Baby Look at You
TTITLE5=You `re Breaking My Heart
TTITLE6=My Reward
TTITLE7=Don`t Cry Anymore
TTITLE8=Blues for Me
TTITLE9=Just Like a Woman
TTITLE10=Things Are The Same
TTITLE11=Sugar Man
TTITLE12=A Lonely Lover a Plea
TTITLE13=Yes Indeed
TTITLE14=Bad Lock Blues
TTITLE15=It`s My Own fault
TTITLE16=Please Love Me
TTITLE17=Everyday I Have the Bluex
EXTD=
EXTT0=
EXTT1=
EXTT2=
EXTT3=
EXTT4=
EXTT5=
EXTT6=
EXTT7=
EXTT8=
EXTT9=
EXTT10=
EXTT11=
EXTT12=
EXTT13=
EXTT14=
EXTT15=
EXTT16=
EXTT17=
PLAYORDER=
